<svg id="Capa_1" fill="red" enable-background="new 0 0 512 512" height="512" viewBox="0 0 512 512" width="512" xmlns="http://www.w3.org/2000/svg"><g><path d="m390.926 13.507c-.766-7.668-7.219-13.507-14.925-13.507h-60c-3.979 0-7.794 1.581-10.606 4.394l-30 30c-4.565 4.565-5.697 11.54-2.81 17.314l24.079 48.156-31.985 21.324 4.74-9.48c2.111-4.223 2.111-9.193 0-13.416l-25.165-50.33 22.355-22.355c9.416-9.418 2.744-25.607-10.608-25.607h-120c-7.707 0-14.159 5.839-14.926 13.507l-15.074 150.745c-8.256 82.558 51.918 156.64 135 164.988v152.76h-45c-8.284 0-15 6.716-15 15s6.716 15 15 15h120c8.284 0 15-6.716 15-15s-6.716-15-15-15h-45v-152.76c83.195-8.358 143.243-82.556 135-164.988zm-134.925 286.493c-71.266 0-127.263-61.611-120.149-132.763l13.723-137.237h70.212l-4.393 4.393c-4.565 4.565-5.697 11.54-2.81 17.315l26.646 53.292-26.646 53.292c-6.859 13.718 8.989 27.687 21.737 19.189l90-60c6.295-4.196 8.479-12.423 5.096-19.189l-25.165-50.33 17.961-17.962h40.212l13.724 137.237c7.093 70.918-48.653 132.763-120.148 132.763z"/></g></svg>
