<svg height="512" fill="red" viewBox="0 0 128 128" width="512" xmlns="http://www.w3.org/2000/svg"><g><path d="m93.842 36.866-12.605-12.6a1.75 1.75 0 0 0 -1.237-.516h-44.6a1.749 1.749 0 0 0 -1.75 1.75v77a1.749 1.749 0 0 0 1.75 1.75h57.2a1.749 1.749 0 0 0 1.75-1.75v-64.4a1.751 1.751 0 0 0 -.508-1.234zm-12.092-7.142 6.631 6.63h-6.631zm-44.6 71.026v-73.5h41.1v10.85a1.749 1.749 0 0 0 1.75 1.754h10.854v60.9z"/><path d="m47.5 48.917h16.5a1.75 1.75 0 0 0 0-3.5h-16.5a1.75 1.75 0 0 0 0 3.5z"/><path d="m80.5 53.833h-33a1.75 1.75 0 0 0 0 3.5h33a1.75 1.75 0 0 0 0-3.5z"/><path d="m80.5 62.25h-33a1.75 1.75 0 0 0 0 3.5h33a1.75 1.75 0 0 0 0-3.5z"/><path d="m80.5 70.667h-33a1.75 1.75 0 0 0 0 3.5h33a1.75 1.75 0 0 0 0-3.5z"/><path d="m80.5 79.083h-33a1.75 1.75 0 0 0 0 3.5h33a1.75 1.75 0 0 0 0-3.5z"/></g></svg>
